<svg width="1200" height="800" xmlns="http://www.w3.org/2000/svg">
  <!-- Background gradient -->
  <defs>
    <linearGradient id="bg-gradient" x1="0%" y1="0%" x2="100%" y2="100%">
      <stop offset="0%" stop-color="#3f51b5" stop-opacity="0.1"/>
      <stop offset="100%" stop-color="#f50057" stop-opacity="0.1"/>
    </linearGradient>
  </defs>
  
  <!-- Background rectangle -->
  <rect width="100%" height="100%" fill="url(#bg-gradient)"/>
  
  <!-- Abstract shapes -->
  <circle cx="200" cy="200" r="100" fill="#3f51b5" opacity="0.2"/>
  <circle cx="1000" cy="600" r="150" fill="#f50057" opacity="0.2"/>
  <circle cx="600" cy="400" r="200" fill="#3f51b5" opacity="0.1"/>
  
  <!-- Music notes and fashion elements -->
  <g opacity="0.7">
    <!-- Music note 1 -->
    <path d="M300,300 Q350,250 400,300 T500,300" stroke="#f50057" stroke-width="5" fill="none"/>
    <circle cx="300" cy="300" r="15" fill="#f50057"/>
    
    <!-- Music note 2 -->
    <path d="M700,500 Q750,450 800,500 T900,500" stroke="#3f51b5" stroke-width="5" fill="none"/>
    <circle cx="700" cy="500" r="15" fill="#3f51b5"/>
    
    <!-- Fashion elements -->
    <rect x="400" y="600" width="100" height="150" rx="10" fill="#3f51b5" opacity="0.3"/>
    <rect x="800" y="200" width="100" height="150" rx="10" fill="#f50057" opacity="0.3"/>
  </g>
  
  <!-- Decorative lines -->
  <line x1="0" y1="100" x2="1200" y2="100" stroke="#ffffff" stroke-width="1" opacity="0.2"/>
  <line x1="0" y1="300" x2="1200" y2="300" stroke="#ffffff" stroke-width="1" opacity="0.2"/>
  <line x1="0" y1="500" x2="1200" y2="500" stroke="#ffffff" stroke-width="1" opacity="0.2"/>
  <line x1="0" y1="700" x2="1200" y2="700" stroke="#ffffff" stroke-width="1" opacity="0.2"/>
</svg>